<svg width="64" height="64" viewBox="0 0 64 64" fill="none" xmlns="http://www.w3.org/2000/svg">
<g id="pay-svgrepo-com 1">
<g id="SVGRepo_iconCarrier">
<path id="Vector" fill-rule="evenodd" clip-rule="evenodd" d="M5.33331 21.3333C5.33331 15.4423 10.1089 10.6666 16 10.6666H48C53.8909 10.6666 58.6666 15.4423 58.6666 21.3333V22.6666C58.6666 23.403 58.0696 24 57.3333 24H6.66665C5.93027 24 5.33331 23.403 5.33331 22.6666V21.3333ZM6.66665 29.3333C5.93027 29.3333 5.33331 29.9304 5.33331 30.6666V42.6666C5.33331 48.5576 10.1089 53.3333 16 53.3333H48C53.8909 53.3333 58.6666 48.5576 58.6666 42.6666V30.6666C58.6666 29.9304 58.0696 29.3333 57.3333 29.3333H6.66665ZM34.6666 40C34.6666 38.5272 35.8605 37.3333 37.3333 37.3333H45.3333C46.8061 37.3333 48 38.5272 48 40C48 41.4728 46.8061 42.6666 45.3333 42.6666H37.3333C35.8605 42.6666 34.6666 41.4728 34.6666 40Z" fill="black"/>
</g>
</g>
</svg>
