<svg width="20" height="20" viewBox="0 0 20 20" fill="none" xmlns="http://www.w3.org/2000/svg">
<path id="Vector" fill-rule="evenodd" clip-rule="evenodd" d="M10 17.5C10.3837 17.5 10.7587 17.4763 11.13 17.44L16.25 20V15.5737C18.535 13.97 20 11.5113 20 8.75C20 3.9175 15.5238 0 10 0C4.4775 0 0 3.9175 0 8.75C0 13.5825 4.4775 17.5 10 17.5ZM10 1.24878C14.8325 1.24878 18.75 4.60753 18.75 8.74878C18.75 11.2888 17.2587 13.51 15 14.8625V14.9974V18.1224L11.25 16.2488C11.25 16.2488 11.4338 16.2488 10 16.2488C5.16875 16.2488 1.25 12.89 1.25 8.74878C1.25 4.60753 5.16875 1.24878 10 1.24878Z" fill="#2A2A2A"/>
</svg>
