<svg width="23" height="20" viewBox="0 0 23 20" fill="none" xmlns="http://www.w3.org/2000/svg">
<path id="Vector" fill-rule="evenodd" clip-rule="evenodd" d="M11.25 20C11.25 20 0 9.5619 0 5.85556C0 1.90929 2.05734 0 6.32812 0C8.4375 0 11.25 3.22638 11.25 3.22638C11.25 3.22638 14.0625 0 16.1719 0C20.4427 0 22.5 1.90804 22.5 5.85556C22.5 9.5619 11.25 20 11.25 20ZM16.1719 1.29079C15.0623 1.29079 11.25 4.51473 11.25 4.51473C11.25 4.51473 7.43625 1.29079 6.32812 1.29079C2.59031 1.29079 1.40625 2.69915 1.40625 6.02686C1.40625 9.15463 11.25 18.063 11.25 18.063C11.25 18.063 21.0938 9.15463 21.0938 6.02686C21.0938 2.69915 19.9097 1.29079 16.1719 1.29079Z" fill="#2A2A2A"/>
</svg>
