<svg width="29" height="33" viewBox="0 0 29 33" fill="none" xmlns="http://www.w3.org/2000/svg">
<g id="SVGRepo_iconCarrier">
<path id="Vector" d="M2.3623 6.00022C2.3623 19.3164 11.8286 30.1113 23.5059 30.1113C24.0327 30.1113 24.555 30.0894 25.0723 30.0461C25.6658 29.9965 25.9625 29.9718 26.2327 29.7945C26.4564 29.6476 26.6686 29.3872 26.7807 29.122C26.9162 28.8019 26.9162 28.4284 26.9162 27.6816V23.2991C26.9162 22.671 26.9162 22.3569 26.8254 22.0878C26.7455 21.8499 26.6154 21.6382 26.4468 21.4711C26.2559 21.282 25.997 21.1747 25.4795 20.96L21.1051 19.1461C20.5028 18.8964 20.2016 18.7715 19.916 18.7926C19.664 18.8113 19.4216 18.9095 19.2157 19.0759C18.9821 19.2646 18.8173 19.5779 18.4876 20.2046L17.3674 22.3336C13.7527 20.4667 10.8223 17.1207 9.18282 13.0002L11.0498 11.7228C11.5993 11.3469 11.874 11.1589 12.0395 10.8925C12.1855 10.6577 12.2716 10.3812 12.2879 10.094C12.3065 9.76819 12.1969 9.42482 11.978 8.73807L10.3873 3.74965C10.1991 3.1594 10.105 2.86426 9.9391 2.64659C9.79259 2.45431 9.6069 2.30601 9.39837 2.21469C9.1623 2.11133 8.88692 2.11133 8.33615 2.11133H4.49305C3.8381 2.11133 3.51062 2.11133 3.22985 2.26572C2.99729 2.3936 2.769 2.63557 2.64017 2.89071C2.48464 3.19877 2.46291 3.53718 2.41945 4.21402C2.38158 4.80378 2.3623 5.39943 2.3623 6.00022Z" stroke="white" stroke-width="4.14815" stroke-linecap="round" stroke-linejoin="round"/>
</g>
</svg>
